<svg id="Layer_1" data-name="Layer 1" xmlns="http://www.w3.org/2000/svg" xmlns:xlink="http://www.w3.org/1999/xlink" viewBox="0 0 1024 1024"><defs><style>.cls-1{fill:#fff;}.cls-2{fill:url(#linear-gradient);}</style><linearGradient id="linear-gradient" x1="512" y1="796.94" x2="512" y2="150.7" gradientUnits="userSpaceOnUse"><stop offset="0" stop-color="#1bd71b"/><stop offset="1" stop-color="#1cd679"/></linearGradient></defs><rect class="cls-1" width="1024" height="1024"/><path class="cls-2" d="M829.19,535.24c-23.33-40.3-63.37-70.38-108.34-82.49-20.14-5.42-41.3-7.44-60.56-15.44S623.14,413.25,621,392.49c-2-19.24,10.93-38.21,28.52-46.22s38.66-6.12,56.15,2.09,31.77,22.17,43.36,37.64a835.61,835.61,0,0,1,85.51-60.86c-27.06-47.3-76.89-80.86-130.88-88.16-41.37-5.59-84.45,4.34-121.61,28.31V243.63H468.44v113A69.08,69.08,0,0,1,446,407.93l-.26.24c-18.14,16.32-40.51,27.22-63.33,35.86S336,459.24,313.28,468.16c-9.53,3.74-19.24,8.24-27.74,14V243.63H171.92V788.07H285.54V651.24a79,79,0,0,1,25.86-58.67l.48-.43a192.46,192.46,0,0,1,52.87-33.43c27.52-11.66,57.47-16.79,84.82-28.86a137.92,137.92,0,0,0,18.87-10.13V787a138.42,138.42,0,0,0,67.5-67.63c6-13.27,9.91-27.37,13.65-41.53,4-15.21,7.94-30.47,14.29-44.83a151.73,151.73,0,0,1,18.19-30.55c15.51-20.39,35.81-37.38,57.72-50.94,32-19.84,67.67-33,103-46.11q.21,44.79.41,89.57c.06,14.48.12,29-2,43.33A145.4,145.4,0,0,1,582.07,761.9l-1-.1c.33-.2.68-.4,1-.61,33.8-20.19,64.87-45.81,87.37-78.11,22.74-32.62,36.29-72.43,33.48-112.09-6.52,44.57-29.34,85.75-59.91,118.82-18.07,19.56-38.77,36.42-60.94,51.22Q571.95,747.8,561.45,754q-13.32,7.9-27.08,15c-14.13,7.3-28.7,14.09-43.77,19.12h91.47c26.32,1.26,52.68-.29,79-1.31,31.56-1.23,63.63-4.25,92.79-16.38,43-17.9,76.94-55.84,90.84-100.29S852.53,575.54,829.19,535.24Z"/></svg>